<svg width="8" height="15" viewBox="0 0 8 15" fill="none" xmlns="http://www.w3.org/2000/svg">
<path fill-rule="evenodd" clip-rule="evenodd" d="M7.6969 6.76568C7.82029 6.88922 7.8896 7.05669 7.8896 7.23129C7.8896 7.4059 7.82029 7.57336 7.6969 7.6969L1.10806 14.2857C0.983158 14.4021 0.817957 14.4655 0.647261 14.4625C0.476565 14.4595 0.313702 14.3903 0.192983 14.2696C0.0722636 14.1489 0.00311438 13.986 0.000102652 13.8153C-0.00290908 13.6446 0.0604518 13.4794 0.176837 13.3545L6.30007 7.23129L0.176837 1.10806C0.0604518 0.983158 -0.00290908 0.817957 0.000102652 0.647261C0.00311438 0.476565 0.0722636 0.313702 0.192983 0.192983C0.313702 0.0722638 0.476565 0.00311438 0.647261 0.000102652C0.817957 -0.00290908 0.983158 0.060452 1.10806 0.176837L7.6969 6.76568Z" fill="#294F7C"/>
</svg>
