<svg width="28" height="32" viewBox="0 0 28 32" fill="none" xmlns="http://www.w3.org/2000/svg">
<path d="M4.91636 25.789L0.00142225 28.0001L4.149 31.9914L5.63474 26.4803L4.91636 25.789ZM22.4424 6.20236L27.3573 3.99123L23.2097 -5.91485e-05L21.724 5.51105L22.4424 6.20236ZM4.97625 26.4958L5.33544 26.8414L7.26947 24.5081L6.91027 24.1624L6.55108 23.8168L4.61706 26.1501L4.97625 26.4958ZM8.8443 21.8291L9.20349 22.1747L11.1375 19.8414L10.7783 19.4957L10.4191 19.1501L8.48511 21.4834L8.8443 21.8291ZM12.7123 17.1624L13.0715 17.508L15.0056 15.1747L14.6464 14.829L14.2872 14.4834L12.3532 16.8167L12.7123 17.1624ZM16.5804 12.4957L16.9396 12.8413L18.8736 10.508L18.5144 10.1623L18.1552 9.81665L16.2212 12.15L16.5804 12.4957ZM20.4484 7.82896L20.8076 8.17461L22.7417 5.84126L22.3825 5.49561L22.0233 5.14995L20.0893 7.4833L20.4484 7.82896Z" fill="#7A7A7A"/>
</svg>
